Coordinates
version=1
nRows=32
nColumns=11
inDegrees=yes

Units are S.I. units (second, meters, Newtons, ...)
If the header above contains a line with 'inDegrees', this indicates whether rotational values are in degrees (yes) or radians (no).

endheader
time	pelvis_tilt	pelvis_tx	pelvis_ty	hip_flexion_l	hip_flexion_r	knee_angle_l	knee_angle_r	ankle_angle_l	ankle_angle_r	lumbar
     86.40000000	    -16.74894473	      0.26582020	      0.94286815	     39.23184209	     39.23184209	    -30.37657236	    -30.37657236	      7.55907910	      7.55907910	    -16.91156243
     86.41000000	    -16.51512315	      0.26843519	      0.94475467	     38.49352303	     38.49352303	    -29.82238334	    -29.82238334	      7.47884601	      7.47884601	    -16.58822349
     86.42000000	    -16.27822853	      0.27105316	      0.94657722	     37.76335835	     37.76335835	    -29.28888159	    -29.28888159	      7.41360116	      7.41360116	    -16.26990032
     86.43000000	    -16.03775125	      0.27367307	      0.94833998	     37.04015994	     37.04015994	    -28.77378370	    -28.77378370	      7.35694123	      7.35694123	    -15.95755568
     86.44000000	    -15.79404793	      0.27629206	      0.95004631	     36.32333821	     36.32333821	    -28.27406592	    -28.27406592	      7.30243927	      7.30243927	    -15.65166025
     86.45000000	    -15.54794769	      0.27890633	      0.95169910	     35.61269161	     35.61269161	    -27.78679266	    -27.78679266	      7.24522286	      7.24522286	    -15.35251723
     86.46000000	    -15.30020853	      0.28151257	      0.95330180	     34.90787802	     34.90787802	    -27.30942078	    -27.30942078	      7.18250831	      7.18250831	    -15.06038809
     86.47000000	    -15.05105605	      0.28410868	      0.95485820	     34.20811249	     34.20811249	    -26.84004773	    -26.84004773	      7.11313114	      7.11313114	    -14.77585461
     86.48000000	    -14.79921368	      0.28669488	      0.95637399	     33.51139087	     33.51139087	    -26.37752698	    -26.37752698	      7.03594345	      7.03594345	    -14.50143225
     86.49000000	    -14.55450386	      0.28926221	      0.95782675	     32.82957020	     32.82957020	    -25.92472967	    -25.92472967	      6.95413778	      6.95413778	    -14.22517300
     86.50000000	    -14.30531144	      0.29181903	      0.95924817	     32.14876693	     32.14876693	    -25.47917857	    -25.47917857	      6.86269841	      6.86269841	    -13.96346041
     86.51000000	    -14.06546909	      0.29436177	      0.96059650	     31.48514323	     31.48514323	    -25.04205161	    -25.04205161	      6.76883882	      6.76883882	    -13.69703459
     86.52000000	    -13.82551599	      0.29687908	      0.96190924	     30.82963372	     30.82963372	    -24.61498431	    -24.61498431	      6.66905566	      6.66905566	    -13.44119222
     86.53000000	    -13.58765822	      0.29937692	      0.96317375	     30.18408358	     30.18408358	    -24.19828395	    -24.19828395	      6.56661245	      6.56661245	    -13.19174704
     86.54000000	    -13.35234999	      0.30185016	      0.96439146	     29.54882292	     29.54882292	    -23.79163817	    -23.79163817	      6.46504595	      6.46504595	    -12.94899438
     86.55000000	    -13.12009064	      0.30429518	      0.96556381	     28.92388657	     28.92388657	    -23.39442631	    -23.39442631	      6.36825781	      6.36825781	    -12.71291832
     86.56000000	    -12.89095525	      0.30671027	      0.96669330	     28.30861930	     28.30861930	    -23.00579216	    -23.00579216	      6.27964435	      6.27964435	    -12.48371638
     86.57000000	    -12.66523883	      0.30909478	      0.96778128	     27.70286863	     27.70286863	    -22.62530915	    -22.62530915	      6.20163218	      6.20163218	    -12.26090320
     86.58000000	    -12.59771180	      0.31135628	      0.96850448	     27.29914240	     27.29914240	    -22.29235003	    -22.29235003	      6.19502152	      6.19502152	    -11.85085204
     86.59000000	    -12.22657132	      0.31377190	      0.96983186	     26.52234889	     26.52234889	    -21.88994417	    -21.88994417	      6.08059866	      6.08059866	    -11.82927588
     86.60000000	    -12.01340403	      0.31606729	      0.97079631	     25.94660682	     25.94660682	    -21.53292938	    -21.53292938	      6.03714063	      6.03714063	    -11.61936476
     86.61000000	    -11.80454940	      0.31833791	      0.97172285	     25.37946874	     25.37946874	    -21.18347912	    -21.18347912	      6.00127656	      6.00127656	    -11.40943301
     86.62000000	    -11.60270786	      0.32057744	      0.97260806	     24.82582180	     24.82582180	    -20.84147752	    -20.84147752	      5.97330212	      5.97330212	    -11.19952583
     86.63000000	    -11.40621283	      0.32279217	      0.97345902	     24.28123798	     24.28123798	    -20.50380654	    -20.50380654	      5.94989935	      5.94989935	    -10.98916529
     86.64000000	    -11.21195794	      0.32498879	      0.97428401	     23.74083428	     23.74083428	    -20.16699720	    -20.16699720	      5.92895082	      5.92895082	    -10.77980992
     86.65000000	    -11.02213694	      0.32716881	      0.97508429	     23.20400356	     23.20400356	    -19.82958409	    -19.82958409	      5.90649991	      5.90649991	    -10.56759836
     86.66000000	    -10.83208531	      0.32934497	      0.97587163	     22.66358076	     22.66358076	    -19.48518648	    -19.48518648	      5.88243708	      5.88243708	    -10.35694073
     86.67000000	    -10.64498194	      0.33152408	      0.97663743	     22.12022376	     22.12022376	    -19.12781823	    -19.12781823	      5.86095151	      5.86095151	    -10.14182185
     86.68000000	    -10.50323994	      0.33366323	      0.97730231	     21.62907464	     21.62907464	    -18.77595864	    -18.77595864	      5.84522921	      5.84522921	     -9.87781903
     86.69000000	    -10.26716767	      0.33584912	      0.97813772	     21.01773147	     21.01773147	    -18.39176977	    -18.39176977	      5.79558408	      5.79558408	     -9.72037634
     86.70000000	    -10.09307860	      0.33799741	      0.97885482	     20.47884613	     20.47884613	    -18.01424923	    -18.01424923	      5.75977023	      5.75977023	     -9.49236372
     86.71000000	    -10.06636563	      0.34005039	      0.97925111	     20.12326003	     20.12326003	    -17.67486297	    -17.67486297	      5.77641380	      5.77641380	     -9.07654703
